<?xml version="1.0" encoding="utf-8" standalone="no"?>
<!DOCTYPE svg PUBLIC "-//W3C//DTD SVG 1.1//EN"
  "http://www.w3.org/Graphics/SVG/1.1/DTD/svg11.dtd">
<svg xmlns:xlink="http://www.w3.org/1999/xlink" width="720pt" height="216pt" viewBox="0 0 720 216" xmlns="http://www.w3.org/2000/svg" version="1.1">
 <metadata>
  <rdf:RDF xmlns:dc="http://purl.org/dc/elements/1.1/" xmlns:cc="http://creativecommons.org/ns#" xmlns:rdf="http://www.w3.org/1999/02/22-rdf-syntax-ns#">
   <cc:Work>
    <dc:type rdf:resource="http://purl.org/dc/dcmitype/StillImage"/>
    <dc:date>2025-05-26T05:39:20.013802</dc:date>
    <dc:format>image/svg+xml</dc:format>
    <dc:creator>
     <cc:Agent>
      <dc:title>Matplotlib v3.6.3, https://matplotlib.org/</dc:title>
     </cc:Agent>
    </dc:creator>
   </cc:Work>
  </rdf:RDF>
 </metadata>
 <defs>
  <style type="text/css">*{stroke-linejoin: round; stroke-linecap: butt}</style>
 </defs>
 <g id="figure_1">
  <g id="patch_1">
   <path d="M 0 216 
L 720 216 
L 720 0 
L 0 0 
z
" style="fill: #ffffff"/>
  </g>
  <g id="axes_1">
   <g id="PolyCollection_1">
    <defs>
     <path id="m383bc77860" d="M 90 -23.76 
L 90 -23.76 
L 229.5 -134.64 
L 369 -23.76 
L 369 -23.76 
L 369 -23.76 
L 229.5 -23.76 
L 90 -23.76 
z
" style="stroke: #2c3e50; stroke-opacity: 0.3"/>
    </defs>
    <g clip-path="url(#pc1083e966a)">
     <use xlink:href="#m383bc77860" x="0" y="216" style="fill: #2c3e50; fill-opacity: 0.3; stroke: #2c3e50; stroke-opacity: 0.3"/>
    </g>
   </g>
   <g id="PolyCollection_2">
    <defs>
     <path id="m9a8be5e817" d="M 369 -23.76 
L 369 -23.76 
L 508.5 -145.728 
L 648 -23.76 
L 648 -23.76 
L 648 -23.76 
L 508.5 -23.76 
L 369 -23.76 
z
" style="stroke: #2c3e50; stroke-opacity: 0.3"/>
    </defs>
    <g clip-path="url(#pc1083e966a)">
     <use xlink:href="#m9a8be5e817" x="0" y="216" style="fill: #2c3e50; fill-opacity: 0.3; stroke: #2c3e50; stroke-opacity: 0.3"/>
    </g>
   </g>
   <g id="PolyCollection_3">
    <defs>
     <path id="m085e35fbaa" d="M 90 -23.76 
L 90 -23.76 
L 257.4 -156.816 
L 424.8 -23.76 
L 424.8 -23.76 
L 424.8 -23.76 
L 257.4 -23.76 
L 90 -23.76 
z
" style="stroke: #34495e; stroke-opacity: 0.5"/>
    </defs>
    <g clip-path="url(#pc1083e966a)">
     <use xlink:href="#m085e35fbaa" x="0" y="216" style="fill: #34495e; fill-opacity: 0.5; stroke: #34495e; stroke-opacity: 0.5"/>
    </g>
   </g>
   <g id="PolyCollection_4">
    <defs>
     <path id="md90270803d" d="M 424.8 -23.76 
L 424.8 -23.76 
L 536.4 -140.184 
L 648 -23.76 
L 648 -23.76 
L 648 -23.76 
L 536.4 -23.76 
L 424.8 -23.76 
z
" style="stroke: #34495e; stroke-opacity: 0.5"/>
    </defs>
    <g clip-path="url(#pc1083e966a)">
     <use xlink:href="#md90270803d" x="0" y="216" style="fill: #34495e; fill-opacity: 0.5; stroke: #34495e; stroke-opacity: 0.5"/>
    </g>
   </g>
   <g id="PolyCollection_5">
    <defs>
     <path id="m5b6d032f2a" d="M 90 -23.76 
L 90 -23.76 
L 369 -178.992 
L 648 -23.76 
L 648 -23.76 
L 648 -23.76 
L 369 -23.76 
L 90 -23.76 
z
" style="stroke: #1abc9c; stroke-opacity: 0.7"/>
    </defs>
    <g clip-path="url(#pc1083e966a)">
     <use xlink:href="#m5b6d032f2a" x="0" y="216" style="fill: #1abc9c; fill-opacity: 0.7; stroke: #1abc9c; stroke-opacity: 0.7"/>
    </g>
   </g>
  </g>
 </g>
 <defs>
  <clipPath id="pc1083e966a">
   <rect x="90" y="25.92" width="558" height="166.32"/>
  </clipPath>
 </defs>
</svg>
